<svg xmlns="http://www.w3.org/2000/svg" viewBox="0 0 430.93 152.11"><title>Asset 6</title><g id="Layer_2" data-name="Layer 2"><g id="Layer_1-2" data-name="Layer 1"><path d="M137.6,18.7a2.09,2.09,0,0,1,1.58.82,8.66,8.66,0,0,1,1.26,2,11.23,11.23,0,0,1,.82,2.34,6.75,6.75,0,0,1,.16,2.19c-.07.8-.54,1.2-1.42,1.2a84.86,84.86,0,0,0-10.58,0c-3.64.21-7.21.51-10.7.87,1.38.65,2,1.25,1.91,1.8a12.14,12.14,0,0,1-1,2.57c-.43.94-.89,2-1.36,3.16s-.93,2.48-1.37,3.93q-2,6.23-3.71,13.48t-3.05,14q-1.32,6.76-2.13,12.27a61.67,61.67,0,0,0-.82,8.46,1.16,1.16,0,0,1-1.31,1.31,6.92,6.92,0,0,1-2.24-.43,12.33,12.33,0,0,1-2.35-1.1,7.71,7.71,0,0,1-1.85-1.52,2.67,2.67,0,0,1-.76-1.75c0-2,.12-4.4.38-7.09s.6-5.57,1-8.63,1-6.23,1.59-9.55,1.29-6.56,2-9.77q1.08-5.13,2.4-10.09t3.16-10l-6.87,1c-2,.29-3.9.59-5.57.88s-3.2.62-4.58,1a25.13,25.13,0,0,0-3.82,1.31,7,7,0,0,0-1,.49q-.44.27-.87.6c-.29.15-.47.18-.55.11-.43,0-.85-.42-1.25-1.26a21.22,21.22,0,0,1-1.09-2.83,26.1,26.1,0,0,1-.77-3.17,8.46,8.46,0,0,1-.16-2.35c.15-.94,1.67-1.74,4.58-2.4A103.52,103.52,0,0,1,99.78,20q6.5-.93,12.94-1.31t12.77-.33Q131.82,18.38,137.6,18.7Z"/><path d="M123.52,83.86q.33-4.24,1.2-9.11c.58-3.24,1.27-6.47,2.08-9.71s1.69-6.41,2.67-9.5A81.4,81.4,0,0,1,132.69,47c.36-.94.87-1.42,1.53-1.42a6.06,6.06,0,0,1,1.8.33,16.17,16.17,0,0,1,2.07.82,14.66,14.66,0,0,1,1.86,1c.54.36,1,.69,1.36,1a1.09,1.09,0,0,1,.33,1.58,11.33,11.33,0,0,0-.87,1.8q-1.53,3.93-2.9,8.41c-.91,3-1.72,6-2.45,8.95.94-2.11,2-4.3,3.22-6.55s2.45-4.44,3.76-6.55a69.46,69.46,0,0,1,4-5.79,26.73,26.73,0,0,1,4-4.25,2.81,2.81,0,0,1,2.08-.77,6.46,6.46,0,0,1,1.31.22c.58.15,1.21.35,1.91.6a18.43,18.43,0,0,1,2,.87,6.37,6.37,0,0,1,1.58,1.15c.73.73.95,1.37.66,1.91a4.54,4.54,0,0,1-1.31,1.48,14.32,14.32,0,0,0-4.2,6,23.44,23.44,0,0,0-1.59,6.44,4.85,4.85,0,0,0,.55,3,1.86,1.86,0,0,0,1.53.93,5.16,5.16,0,0,0,3.38-1.42,20.19,20.19,0,0,0,3.06-3.39q1.41-2,2.62-4l2-3.39a1.44,1.44,0,0,1,1-.71,1.68,1.68,0,0,1,1.09.28,1.53,1.53,0,0,1,.65.87,1.59,1.59,0,0,1-.16,1.2c-.58,1-1.31,2.24-2.18,3.66s-1.84,2.83-2.89,4.25A36,36,0,0,1,160,69.4a9.77,9.77,0,0,1-3.76,2.46,6,6,0,0,1-3.22.22,11.6,11.6,0,0,1-3.5-1.26,10.33,10.33,0,0,1-2.94-2.4,6.15,6.15,0,0,1-1.48-3.33,16.06,16.06,0,0,1,.77-5.84,39.27,39.27,0,0,1,2.18-5.84c.22-.51.27-.74.16-.71a1.52,1.52,0,0,0-.49.49,59.15,59.15,0,0,0-5.4,8c-1.86,3.23-3.55,6.53-5.08,9.87a99.67,99.67,0,0,0-3.82,9.61,32.75,32.75,0,0,0-1.74,7.2c0,.59-.13.93-.38,1a2.38,2.38,0,0,1-.93.16,5.79,5.79,0,0,1-2.19-.49A10.37,10.37,0,0,1,126,87.36a8.34,8.34,0,0,1-1.75-1.7A3,3,0,0,1,123.52,83.86Z"/><path d="M176.9,81.68a16.35,16.35,0,0,0,.27-2.07,13.34,13.34,0,0,1,.27-2.08,1.89,1.89,0,0,0,.11-.76,41,41,0,0,1-5.46,8.68c-2,2.44-4.29,3.65-6.76,3.65a6.61,6.61,0,0,1-5.08-1.91,8.17,8.17,0,0,1-2.13-4.85,37.44,37.44,0,0,1,.27-9.94,47.57,47.57,0,0,1,2.9-10.64,44.26,44.26,0,0,1,5.18-9.49,21.54,21.54,0,0,1,7.15-6.5,4.88,4.88,0,0,1,2.67-.71,9.78,9.78,0,0,1,2.79.55,21.2,21.2,0,0,1,2.84,1.25q1.41.77,2.94,1.53a1.29,1.29,0,0,0,.33-.65c.07-.29.15-.55.22-.77.44-.94,1-1.42,1.64-1.42a6.17,6.17,0,0,1,1.8.33,14,14,0,0,1,2,.82,17,17,0,0,1,1.8,1c.54.36,1,.69,1.36,1a1.09,1.09,0,0,1,.33,1.58,10.53,10.53,0,0,0-.87,1.8q-1.32,3.6-2.51,7.64c-.81,2.7-1.53,5.39-2.19,8.08s-1.24,5.29-1.74,7.8-1,4.75-1.31,6.72c-.15.8,0,1.23.32,1.31a1.38,1.38,0,0,0,1.2-.55,32.44,32.44,0,0,0,4.64-5.95A71.13,71.13,0,0,0,195.78,70q1.74-3.7,3.11-7.31l2.45-6.44a1.65,1.65,0,0,1,.88-.87,1.38,1.38,0,0,1,1.09,0,1.52,1.52,0,0,1,.87,2c-.51,1.24-1.14,2.88-1.91,4.91s-1.69,4.24-2.78,6.61-2.28,4.74-3.55,7.15a51.87,51.87,0,0,1-4,6.49,25.53,25.53,0,0,1-4.42,4.75,7.26,7.26,0,0,1-4.58,1.85,5.17,5.17,0,0,1-2.57-.65,6.41,6.41,0,0,1-2-1.75,7.22,7.22,0,0,1-1.2-2.4A6.9,6.9,0,0,1,176.9,81.68Zm-8.41,1.75q1.31,0,2.73-1.8A30.72,30.72,0,0,0,174.11,77a57.06,57.06,0,0,0,2.79-6.22q1.31-3.43,2.45-6.66t2-5.84c.54-1.74,1-3,1.25-3.93.15-.5.31-1,.49-1.47a14,14,0,0,1,.6-1.36A2.86,2.86,0,0,0,181,50.14q-2.83,0-5.29,3a30.76,30.76,0,0,0-4.31,7.48,58.17,58.17,0,0,0-3,9.28,51.07,51.07,0,0,0-1.37,8.35c0,.29,0,.73,0,1.31a8.62,8.62,0,0,0,0,1.69,4.51,4.51,0,0,0,.44,1.47A1,1,0,0,0,168.49,83.43Z"/><path d="M225,46.21a7.21,7.21,0,0,1,2.89,3.27,4.8,4.8,0,0,1,.16,3.93q-1.31,3.06-3.05,6.66c-1.17,2.4-2.44,4.88-3.82,7.42a4.77,4.77,0,0,0,3.16.44,9.81,9.81,0,0,0,5.13-3.33A46.44,46.44,0,0,0,235.18,56a1.27,1.27,0,0,1,.93-.76,1.62,1.62,0,0,1,1.09.16,1.59,1.59,0,0,1,.71.82,1.44,1.44,0,0,1-.11,1.2,45.47,45.47,0,0,1-6.6,9.66,11.8,11.8,0,0,1-6.28,3.77,7,7,0,0,1-5.13-.77q-2.52,4.59-5.24,8.84a74,74,0,0,1-5.35,7.42,10,10,0,0,1-1.91,1.86,3.82,3.82,0,0,1-2.34.87,10,10,0,0,1-2.84-.49A15.51,15.51,0,0,1,199,87.3a8.79,8.79,0,0,1-2.46-2,3.76,3.76,0,0,1-1-2.46q0-4.26.27-8.89c.18-3.1.46-6.21.82-9.34s.82-6.18,1.36-9.16,1.19-5.79,1.91-8.41c.37-1.09,1-1.64,1.86-1.64a12.13,12.13,0,0,1,3.76.71,13.21,13.21,0,0,1,3.23,1.48,1.19,1.19,0,0,1,.49,1.58q-.39,1-.6,1.8c-.59,2.18-1.17,4.68-1.75,7.48s-1.13,5.66-1.64,8.57-.94,5.71-1.31,8.4-.58,5-.65,7c-.08.5,0,.81.16.92s.45-.09.82-.6a54,54,0,0,0,3-4.69c1.06-1.82,2.11-3.69,3.17-5.62s2-3.86,2.94-5.79S215.17,63,216,61.49a26.77,26.77,0,0,1,1.25-6.71,29.53,29.53,0,0,1,4.1-8,2,2,0,0,1,1.74-1.14A4.53,4.53,0,0,1,225,46.21Z"/><path d="M242.82,89.1a15,15,0,0,1-8-1.91,12,12,0,0,1-4.64-5,17.85,17.85,0,0,1-1.75-7,29,29,0,0,1,.71-8.08A45.24,45.24,0,0,1,231.79,59a32.83,32.83,0,0,1,4.15-7,23.67,23.67,0,0,1,5.19-5,9.93,9.93,0,0,1,5.73-1.91,8.76,8.76,0,0,1,3.54.92,15.67,15.67,0,0,1,3.77,2.46,16.46,16.46,0,0,1,3,3.38,6.66,6.66,0,0,1,1.2,3.61,13.54,13.54,0,0,1-2,7.09,21.55,21.55,0,0,1-5,5.73,24.62,24.62,0,0,1-6.6,3.82A18.71,18.71,0,0,1,238,73.49a15.18,15.18,0,0,0,1.25,7.43,5.37,5.37,0,0,0,5.29,3A9.3,9.3,0,0,0,251,81a36.54,36.54,0,0,0,5.78-7.26,73.72,73.72,0,0,0,4.81-9.12q2.13-4.8,3.54-8.51a1.17,1.17,0,0,1,.82-.82,1.55,1.55,0,0,1,1.09.06,1.81,1.81,0,0,1,.82.76,1.17,1.17,0,0,1,0,1.2q-1.53,4-3.87,9.5a73.44,73.44,0,0,1-5.51,10.42,38.64,38.64,0,0,1-7.1,8.4A12.66,12.66,0,0,1,242.82,89.1Zm4.26-37.43A13.94,13.94,0,0,0,244,55a31.59,31.59,0,0,0-2.67,4.75A39.14,39.14,0,0,0,238.13,71a7.79,7.79,0,0,0,4.41-1.53,16.59,16.59,0,0,0,4-4,21,21,0,0,0,2.9-5.62,19.84,19.84,0,0,0,1.09-6.44,2,2,0,0,0-3.49-1.74Z"/><path d="M258.86,78.41q.43-5.25,1.47-11.74t2.35-13.09Q264,47,265.57,40.7t3.17-11.19a61.81,61.81,0,0,1,3-7.86c.95-2,1.78-2.95,2.51-2.95a9.26,9.26,0,0,1,2.35.49c1,.33,2.11.71,3.16,1.15a18.11,18.11,0,0,1,2.79,1.42c.8.51,1.2,1,1.2,1.42a.74.74,0,0,1-.22.54c-.29.37-.55.68-.76.93a7.48,7.48,0,0,0-.66.93,60.94,60.94,0,0,0-4.31,10.7q-2.24,7-4.26,15.11t-3.6,16.16q-1.59,8-2.35,13.8c-.14,1.24-.07,2,.22,2.13s.84-.12,1.64-.93a33.64,33.64,0,0,0,4.47-5.94c1.39-2.3,2.66-4.64,3.82-7s2.22-4.77,3.17-7.1,1.75-4.4,2.4-6.22a1.67,1.67,0,0,1,.87-.87,1.4,1.4,0,0,1,1.1,0,1.77,1.77,0,0,1,.87.76,1.17,1.17,0,0,1,0,1.2q-.76,1.86-2,4.91t-2.83,6.61Q279.7,72.4,277.74,76a53.29,53.29,0,0,1-4.14,6.49,27.13,27.13,0,0,1-4.48,4.75,7.38,7.38,0,0,1-4.69,1.85A5,5,0,0,1,260.94,88a5.9,5.9,0,0,1-1.7-2.67,11.82,11.82,0,0,1-.49-3.44C258.75,80.66,258.79,79.5,258.86,78.41Z"/><path d="M276.65,81.68a13.38,13.38,0,0,0,.27-2.07,14.74,14.74,0,0,1,.28-2.08,148.63,148.63,0,0,1,3.38-15.88,107.42,107.42,0,0,1,5-14.68c.44-.94,1-1.42,1.64-1.42a6.06,6.06,0,0,1,1.8.33,14,14,0,0,1,2,.82,17,17,0,0,1,1.8,1c.55.36,1,.69,1.36,1a1.07,1.07,0,0,1,.33,1.58,6.82,6.82,0,0,0-.76,1.8q-1.43,3.6-2.68,7.64c-.83,2.7-1.62,5.39-2.34,8.08s-1.37,5.29-1.91,7.8-1,4.75-1.37,6.72c-.14.8,0,1.23.33,1.31a1.4,1.4,0,0,0,1.2-.55,34.44,34.44,0,0,0,4.69-5.95,70,70,0,0,0,4-7.15q1.8-3.7,3.27-7.31t2.57-6.44a1.61,1.61,0,0,1,.87-.87,1.38,1.38,0,0,1,1.09,0,1.52,1.52,0,0,1,.82.76,1.55,1.55,0,0,1,.06,1.2c-.52,1.24-1.17,2.88-2,4.91s-1.75,4.24-2.84,6.61S297.28,73.6,296,76a52.14,52.14,0,0,1-4.15,6.49,25.55,25.55,0,0,1-4.53,4.75,7.47,7.47,0,0,1-4.64,1.85,5.13,5.13,0,0,1-2.56-.65,6.41,6.41,0,0,1-2-1.75,7.44,7.44,0,0,1-1.21-2.4A7.32,7.32,0,0,1,276.65,81.68Zm17.57-55.77c1-2,1.9-3.06,2.62-3.06a12.62,12.62,0,0,1,2.9,1,19.71,19.71,0,0,1,3.54,2q2.3,1.53.44,4.47c-.51.8-1.22,1.9-2.13,3.28s-1.87,2.73-2.89,4a36.94,36.94,0,0,1-3,3.43,4,4,0,0,1-2.46,1.48,2.31,2.31,0,0,1-2.67-2.13,13.08,13.08,0,0,1,.27-5.13,37.36,37.36,0,0,1,1.75-5.62A36.88,36.88,0,0,1,294.22,25.91Z"/><path d="M294.77,83.86q.33-4.24,1.2-9.11c.58-3.24,1.27-6.47,2.07-9.71s1.69-6.41,2.68-9.5A81.4,81.4,0,0,1,303.94,47c.36-.94.87-1.42,1.52-1.42a6.17,6.17,0,0,1,1.81.33,16.17,16.17,0,0,1,2.07.82,14.66,14.66,0,0,1,1.86,1c.54.36,1,.69,1.36,1a1.09,1.09,0,0,1,.33,1.58,11.42,11.42,0,0,0-.88,1.8q-1.53,3.93-2.89,8.41t-2.45,8.95c.94-2.11,2-4.3,3.22-6.55s2.45-4.44,3.76-6.55,2.64-4,4-5.79a27.21,27.21,0,0,1,4-4.25,2.8,2.8,0,0,1,2.07-.77,7.48,7.48,0,0,1,1.75.33,14.54,14.54,0,0,1,2.45.93,12.55,12.55,0,0,1,2.19,1.31,1.92,1.92,0,0,1,.93,1.47,2.66,2.66,0,0,1-.33,1.2c-.22.44-.42.88-.6,1.31s-.38.91-.6,1.42c-.88,2.33-1.69,4.79-2.46,7.37s-1.47,5.15-2.13,7.69-1.25,5-1.8,7.37-1,4.5-1.25,6.39c-.15.8-.08,1.27.22,1.41s.72-.07,1.31-.65a34.93,34.93,0,0,0,4.69-5.95A71.86,71.86,0,0,0,332,70q1.8-3.7,3.28-7.31t2.56-6.44a1.67,1.67,0,0,1,.87-.87,1.4,1.4,0,0,1,1.1,0,1.52,1.52,0,0,1,.87,2q-.77,1.86-2,4.91t-2.83,6.61q-1.64,3.54-3.6,7.15a53.31,53.31,0,0,1-4.15,6.49,26.22,26.22,0,0,1-4.53,4.75A7.49,7.49,0,0,1,319,89.1a6.45,6.45,0,0,1-4.69-1.8,4.71,4.71,0,0,1-1.64-4q.43-3.5,1.14-7.53c.48-2.69,1-5.42,1.7-8.19s1.36-5.47,2.12-8.13S319.18,54.32,320,52a35.32,35.32,0,0,0-3.76,4.86c-1.28,1.93-2.53,4-3.77,6.28s-2.4,4.58-3.49,7S306.88,74.82,306,77s-1.58,4.28-2.13,6.17A22.54,22.54,0,0,0,303,87.9c0,.59-.13.93-.39,1a2.32,2.32,0,0,1-.93.16,5.78,5.78,0,0,1-2.18-.49,10.69,10.69,0,0,1-2.24-1.25,8.53,8.53,0,0,1-1.74-1.7A2.91,2.91,0,0,1,294.77,83.86Z"/><path d="M351.63,78.41a5.27,5.27,0,0,1,.06-.82,8,8,0,0,0,.05-.93,53.28,53.28,0,0,1-2.56,4.75,24.57,24.57,0,0,1-2.95,3.93,14.69,14.69,0,0,1-3.38,2.73,7.46,7.46,0,0,1-3.77,1q-4.15,0-5.95-2.67a12.23,12.23,0,0,1-2-6.17,44.28,44.28,0,0,1,.66-9.55,52.28,52.28,0,0,1,2.73-10,38.18,38.18,0,0,1,4.74-8.84A20.33,20.33,0,0,1,346,45.77a5,5,0,0,1,2.73-.71,9.28,9.28,0,0,1,2.78.55,19.85,19.85,0,0,1,2.67,1.2c.88.47,1.71.89,2.51,1.25q1.32-5.89,2.68-11.18t2.78-9.34a59.38,59.38,0,0,1,2.62-6.44c.8-1.6,1.53-2.4,2.18-2.4a9.79,9.79,0,0,1,2.4.49,32.39,32.39,0,0,1,3.22,1.15,18.11,18.11,0,0,1,2.79,1.42c.8.51,1.2,1,1.2,1.42a.5.5,0,0,1-.33.54,4.37,4.37,0,0,1-.71.93,3,3,0,0,0-.6.93,60.94,60.94,0,0,0-4.31,10.7q-2.24,7-4.26,15.11t-3.6,16.16q-1.57,8-2.35,13.8c-.29,2.4.29,2.81,1.75,1.2a34.16,34.16,0,0,0,4.48-5.94c1.38-2.3,2.67-4.64,3.87-7s2.27-4.77,3.22-7.1,1.75-4.4,2.4-6.22a1.65,1.65,0,0,1,.88-.87,1.38,1.38,0,0,1,1.09,0,1.52,1.52,0,0,1,.87,2c-.51,1.24-1.17,2.88-2,4.91s-1.75,4.24-2.84,6.61-2.29,4.74-3.6,7.15a53.31,53.31,0,0,1-4.15,6.49,26.22,26.22,0,0,1-4.53,4.75,7.49,7.49,0,0,1-4.64,1.85A5,5,0,0,1,353.71,88a6,6,0,0,1-1.7-2.67,11.82,11.82,0,0,1-.49-3.44C351.52,80.66,351.56,79.5,351.63,78.41Zm1.75-28.27c-1.82,0-3.48.94-5,2.84a27.16,27.16,0,0,0-3.87,7,66,66,0,0,0-2.73,8.84,60.25,60.25,0,0,0-1.42,8.24,10.53,10.53,0,0,0,.38,4.42c.4,1,1,1.58,1.8,1.58q1.86,0,4-3.49a46.49,46.49,0,0,0,3.6-6.82c1.17-2.66,2.22-5.33,3.17-8,.36-2.11.74-4.23,1.15-6.38s.81-4.31,1.25-6.5A2.52,2.52,0,0,0,353.38,50.14Z"/><path d="M383.94,45.77a6.21,6.21,0,0,1,4-.44A9.65,9.65,0,0,1,391.69,47a14.08,14.08,0,0,1,4.8.82,14.56,14.56,0,0,1,4,2.13A10.07,10.07,0,0,1,403.15,53a7.28,7.28,0,0,1,1,3.6,37.16,37.16,0,0,1-.82,7.64A42.41,42.41,0,0,1,401,71.86a43.44,43.44,0,0,0,6.49-7.15,40.28,40.28,0,0,0,4.75-8.57,1.47,1.47,0,0,1,.87-.82,1.58,1.58,0,0,1,1.09.06,1.49,1.49,0,0,1,.82.76,1.55,1.55,0,0,1,.06,1.2,42.35,42.35,0,0,1-17,20.3,30,30,0,0,1-7.2,8.24,14.46,14.46,0,0,1-9.06,3.22,10.63,10.63,0,0,1-5.3-1.31,13,13,0,0,1-3.93-3.33,16.21,16.21,0,0,1-2.45-4.36,13,13,0,0,1-.87-4.53,37.76,37.76,0,0,1,1-8.51,47.56,47.56,0,0,1,2.89-8.63A33.12,33.12,0,0,1,377.72,51,20.46,20.46,0,0,1,383.94,45.77Zm-4.37,35.69a3.79,3.79,0,0,1,1.1-.22,24.43,24.43,0,0,0,3.16-.54c.87-.22,1.93-.51,3.17-.87a32.24,32.24,0,0,0,2.72-5A47.79,47.79,0,0,0,392,68.69a57.91,57.91,0,0,0,1.48-6.33,34.64,34.64,0,0,0,.54-5.78,10.88,10.88,0,0,0-.65-4.21,3,3,0,0,0-1.8-1.8,3.7,3.7,0,0,0-2.57.33,8.8,8.8,0,0,0-2.84,2.29,26.32,26.32,0,0,0-4,6.5,40,40,0,0,0-2.62,8,37.66,37.66,0,0,0-.87,7.85A14.82,14.82,0,0,0,379.57,81.46Z"/><path d="M54.4,150.39c19.84-8.53,39.32-13.83,60.77-19.32q35.56-9.1,71.9-14.59a798.84,798.84,0,0,1,92.61-8.64q28.67-1,58.54.15,33.64,1.32,67.11,5.33a80.54,80.54,0,0,0,21.21,0c.77-.11,4.39-.4,4.39-1.49s-4.14-1.46-4.39-1.49c-80.41-9.57-162.08-9.83-242.42.58-46.28,6-92.4,15.49-136.7,30.3-7.38,2.47-14.8,5-22,8.05-1.8.77,1.49,1.62,1.51,1.62,2.59.89,6.32.87,9,1,5.67.23,13,.85,18.45-1.47Z"/><path d="M24.17,39.56A35.84,35.84,0,0,0,15.8,61.94a1.48,1.48,0,0,1,0,.21c0,1.06,0,2.12.13,3.19l0,.46c.08.8.21,1.6.34,2.4L23,62.92a1.74,1.74,0,0,0,.34-2.36,5.14,5.14,0,0,1-.31-5.4l3.29-6.1a5.45,5.45,0,0,0,.43-4.15l-.64-2.12A7.84,7.84,0,0,0,24.17,39.56Z"/><path d="M85.91,56.54a5.18,5.18,0,0,1-7.65.74l-1.32-1.21.8,11.2c1.53,5.25,1.33,9.38-.61,12.27a8.25,8.25,0,0,1-4.53,3.31,7.87,7.87,0,0,1-.93.21,3.9,3.9,0,0,1-3-.44C65.92,81,64.22,76.07,63.4,73a10.26,10.26,0,0,1-7-1.72,22.07,22.07,0,0,0-5.88-2.49,8.53,8.53,0,0,1-3.92-2.37l-3-3.2A6.19,6.19,0,0,1,42,60c-.66-3.85-.17-8.87.35-12.41a3.25,3.25,0,0,1,5.41-1.91l2.42,2.21a1.2,1.2,0,0,0,1.41.16A1.05,1.05,0,0,0,52.16,47l0-.19a8.77,8.77,0,0,1,3.18-8.42l3.32-2.64c1.27-1.66-1.31-6.23-3.21-8.7a35.59,35.59,0,0,0-28.95,10,11.23,11.23,0,0,1,2.88,4.76L30,43.94a8.79,8.79,0,0,1-.69,6.74L26,56.77a1.73,1.73,0,0,0,.11,1.83,5.16,5.16,0,0,1-1,7l-8,6.29c.07.27.12.55.2.82a35.58,35.58,0,0,0,2.89,6.91l5.4-4.1A4.77,4.77,0,0,1,33,78l.73,2.45a5.75,5.75,0,0,0,4.84,4.06l5.67.65a13.79,13.79,0,0,1,5,1.57l1.27.69a11.6,11.6,0,0,1,6.09,10.07v.32a34.82,34.82,0,0,0,5.06-1.07,35.74,35.74,0,0,0,24.83-41Z"/><path d="M48.93,90.36l-1.28-.69a10.59,10.59,0,0,0-3.77-1.19l-5.66-.65a9.15,9.15,0,0,1-7.71-6.46l-.73-2.45a1.37,1.37,0,0,0-2.15-.7L22,82.53c.55.81,1.15,1.59,1.76,2.35A36.36,36.36,0,0,0,43.63,97.22a34.83,34.83,0,0,0,9.6.88v-.63A8.22,8.22,0,0,0,48.93,90.36Z"/><path d="M84.54,49.06c-.1-.23-.21-.46-.31-.7-.31-.73-.65-1.45-1-2.15-.15-.3-.29-.6-.45-.89-.43-.78-.89-1.54-1.37-2.27-.25-.39-.52-.77-.79-1.14s-.63-.86-.95-1.28-.88-1.09-1.34-1.62-.76-.86-1.15-1.27-.7-.69-1-1-.85-.79-1.28-1.16-.86-.73-1.31-1.08-1.11-.85-1.69-1.25c-.29-.21-.59-.41-.9-.61-.79-.52-1.6-1-2.43-1.47L68.22,31c-.83-.44-1.68-.85-2.54-1.22l-.61-.26c-1-.4-1.94-.77-2.93-1.08h0c-.66-.21-1.33-.36-2-.52,1.78,3,3.49,7.39,1,10.17a1.19,1.19,0,0,1-.2.19L57.42,41a5.4,5.4,0,0,0-2,5.16l.05.27a4.46,4.46,0,0,1-2.34,4.64,4.58,4.58,0,0,1-5.31-.65l-2.21-2c-.4,2.76-.92,7.59-.32,11a2.76,2.76,0,0,0,.73,1.44l3,3.19a5.13,5.13,0,0,0,2.37,1.43,24.9,24.9,0,0,1,6.85,2.94,6.7,6.7,0,0,0,5.61,1,2,2,0,0,1,2.48,1.44c1,4.41,2.65,8,4,8.82.45.26.56,0,.78,0a4.87,4.87,0,0,0,3.2-2.11c1.32-2,1.35-5.31.09-9.54a1.51,1.51,0,0,1-.07-.37l-.93-13A2.75,2.75,0,0,1,78,52.46l2.53,2.31a1.78,1.78,0,0,0,2.63-.25l2.23-3C85.14,50.68,84.86,49.86,84.54,49.06Z"/><path d="M36.41,12a51.43,51.43,0,0,0-5,1.76A1.7,1.7,0,0,0,32.58,17a1,1,0,0,0,.16-.06,49.22,49.22,0,0,1,4.65-1.64,1.7,1.7,0,0,0-1-3.26Z"/><path d="M2.55,51.59A1.7,1.7,0,0,0,.61,53a51,51,0,0,0-.55,10.4A1.71,1.71,0,0,0,1.85,65a1.76,1.76,0,0,0,.4-.07,1.71,1.71,0,0,0,1.21-1.72A47,47,0,0,1,4,53.53,1.71,1.71,0,0,0,2.55,51.59Z"/><path d="M24.64,19.17a1.7,1.7,0,0,0-2.37-.45,50.43,50.43,0,0,0-7.95,6.72,1.68,1.68,0,0,0,0,2.4,1.7,1.7,0,0,0,1.67.4,1.73,1.73,0,0,0,.73-.44,46.82,46.82,0,0,1,7.43-6.27A1.71,1.71,0,0,0,24.64,19.17Z"/><path d="M8.33,81.94A48.05,48.05,0,0,1,5.4,74.47c-.16-.54-.32-1.09-.46-1.64a1.7,1.7,0,0,0-3.29.86c.16.58.32,1.17.49,1.75a51.1,51.1,0,0,0,3.14,8,1.7,1.7,0,0,0,2,.88l.26-.1A1.71,1.71,0,0,0,8.33,81.94Z"/><path d="M37.21,106.41a47.21,47.21,0,0,1-9-3.76,1.7,1.7,0,0,0-1.63,3,51.43,51.43,0,0,0,9.6,4,1.72,1.72,0,0,0,1,0,1.7,1.7,0,0,0,0-3.26Z"/><path d="M77.13,102.7a1.69,1.69,0,0,0-2.32-.63,48,48,0,0,1-8.87,4,1.7,1.7,0,0,0,1,3.24h0A52.35,52.35,0,0,0,76.51,105,1.7,1.7,0,0,0,77.13,102.7Z"/><path d="M56.45,108.14a47.75,47.75,0,0,1-9.71.13,1.7,1.7,0,0,0-.3,3.38,50.92,50.92,0,0,0,10.4-.13l.29-.07a1.7,1.7,0,0,0-.68-3.31Z"/><path d="M20.23,97.16a46.89,46.89,0,0,1-6.74-7,1.7,1.7,0,0,0-2.68,2.09A51.21,51.21,0,0,0,18,99.76a1.69,1.69,0,0,0,1.59.33,1.76,1.76,0,0,0,.81-.53A1.72,1.72,0,0,0,20.23,97.16Z"/><path d="M10.24,33.1a1.7,1.7,0,0,0-2.35.53A51.22,51.22,0,0,0,3.26,43a1.7,1.7,0,0,0,1,2.19,1.67,1.67,0,0,0,1.08,0,1.65,1.65,0,0,0,1.11-1,48,48,0,0,1,4.33-8.7A1.7,1.7,0,0,0,10.24,33.1Z"/><path d="M88.63,92.73a1.71,1.71,0,0,0-2.4.12,47.61,47.61,0,0,1-3.49,3.47,1.7,1.7,0,0,0,1.62,2.9,1.57,1.57,0,0,0,.65-.37,52.37,52.37,0,0,0,3.74-3.71A1.71,1.71,0,0,0,88.63,92.73Z"/><path d="M44.26,10.24A1.68,1.68,0,0,0,45.94,12l7.27.06,3.15,8.33a1.7,1.7,0,0,0,3.18-1.2L56.86,12l7.54.06,2.45,3.74A1.7,1.7,0,0,0,69.69,14l-2.27-3.47,2.4-3a1.7,1.7,0,1,0-2.66-2.11L64.51,8.71l-7.75-.07,1.92-6.46A1.67,1.67,0,0,0,58.11.37a1.56,1.56,0,0,0-.57-.3,1.71,1.71,0,0,0-2.12,1.15L53.23,8.61,46,8.55A1.7,1.7,0,0,0,44.26,10.24Z"/></g></g></svg>