<svg xmlns="http://www.w3.org/2000/svg" viewBox="0 0 432.33 182.53"><title>Asset 7</title><g id="Layer_2" data-name="Layer 2"><g id="Layer_1-2" data-name="Layer 1"><path d="M144.89,24.46c-9.1-7.29-20.87-5.89-29.15-3.43L91.07,28.36,54.36,2.5,30.58,0,58.41,38.09,36.05,44.9,15.55,33.4,0,38,10.72,56.3c-1.64,1.45-3.24,3.6-2.47,6.22,1,3.42,5.19,5.69,12.43,6.76q2.22.33,4.83.51c8,.56,17-.19,22.71-1.9L136.4,41.7c7.62-2.26,11.69-5.22,12.44-9C149.22,30.67,148.86,27.64,144.89,24.46Z"/><path d="M108.63,39.07a2.4,2.4,0,0,1,1.84,1,9.91,9.91,0,0,1,1.47,2.29,13.21,13.21,0,0,1,1,2.73,7.65,7.65,0,0,1,.19,2.55,1.43,1.43,0,0,1-1.65,1.4,101.75,101.75,0,0,0-12.35,0q-6.36.39-12.47,1,2.42,1.14,2.22,2.1a13.4,13.4,0,0,1-1.21,3Q86.85,56.78,86,58.8t-1.59,4.59q-2.3,7.24-4.33,15.72T76.55,95.46q-1.53,7.91-2.48,14.33a72,72,0,0,0-1,9.86,1.35,1.35,0,0,1-1.53,1.53,8.09,8.09,0,0,1-2.61-.51,14.8,14.8,0,0,1-2.73-1.27,8.91,8.91,0,0,1-2.17-1.79,3.09,3.09,0,0,1-.89-2q0-3.57.45-8.28t1.21-10q.76-5.35,1.84-11.14T69,74.72q1.27-6,2.8-11.78t3.69-11.65l-8,1.15q-3.57.51-6.49,1c-2,.34-3.74.72-5.35,1.14a31.31,31.31,0,0,0-4.45,1.53,7.25,7.25,0,0,0-1.15.57c-.34.21-.68.45-1,.7s-.55.21-.63.13c-.51,0-1-.49-1.47-1.46a25.49,25.49,0,0,1-1.27-3.31,28.83,28.83,0,0,1-.89-3.7,9.51,9.51,0,0,1-.19-2.73q.26-1.66,5.34-2.8a118.25,118.25,0,0,1,14.58-3c5-.73,10.08-1.23,15.08-1.53s10-.43,14.9-.38S104.13,38.82,108.63,39.07Z"/><path d="M92.21,115.07a104.93,104.93,0,0,1,1.4-10.63q1-5.67,2.42-11.33T99.14,82a98.18,98.18,0,0,1,3.76-10c.42-1.1,1-1.65,1.78-1.65a6.88,6.88,0,0,1,2.1.38,18.64,18.64,0,0,1,2.42,1,17.47,17.47,0,0,1,2.17,1.21c.63.43,1.16.81,1.59,1.15a1.26,1.26,0,0,1,.38,1.84,14.34,14.34,0,0,0-1,2.1q-1.78,4.59-3.37,9.81t-2.87,10.44c1.1-2.46,2.36-5,3.76-7.64s2.86-5.18,4.39-7.64a80.13,80.13,0,0,1,4.65-6.75,31.81,31.81,0,0,1,4.64-5,3.25,3.25,0,0,1,2.42-.89,6.9,6.9,0,0,1,1.53.25c.68.17,1.42.41,2.23.7a19.85,19.85,0,0,1,2.29,1,7.59,7.59,0,0,1,1.84,1.34c.85.85,1.11,1.59.77,2.22a5.24,5.24,0,0,1-1.53,1.72,16.77,16.77,0,0,0-4.9,7,27.64,27.64,0,0,0-1.85,7.51,5.71,5.71,0,0,0,.64,3.51,2.17,2.17,0,0,0,1.78,1.08,6,6,0,0,0,3.95-1.66,23.11,23.11,0,0,0,3.56-3.94q1.65-2.3,3.06-4.71c.93-1.62,1.69-2.93,2.29-4a1.66,1.66,0,0,1,1.21-.83,2,2,0,0,1,1.27.32,1.75,1.75,0,0,1,.57,2.42c-.68,1.19-1.52,2.61-2.54,4.26s-2.15,3.31-3.37,5a42.92,42.92,0,0,1-4,4.58,11.36,11.36,0,0,1-4.39,2.87,7,7,0,0,1-3.76.25,13.27,13.27,0,0,1-4.07-1.46,12.24,12.24,0,0,1-3.44-2.8,7.16,7.16,0,0,1-1.72-3.89,18.77,18.77,0,0,1,.89-6.81,46.3,46.3,0,0,1,2.55-6.81c.25-.59.32-.87.19-.83a1.76,1.76,0,0,0-.57.58,66.72,66.72,0,0,0-6.3,9.35q-3.26,5.67-5.92,11.53a113.66,113.66,0,0,0-4.46,11.2,37.91,37.91,0,0,0-2,8.4c0,.68-.15,1.08-.45,1.21a2.71,2.71,0,0,1-1.08.19,6.81,6.81,0,0,1-2.55-.57,12.41,12.41,0,0,1-2.61-1.47,10.08,10.08,0,0,1-2-2A3.48,3.48,0,0,1,92.21,115.07Z"/><path d="M154.46,112.52a18.1,18.1,0,0,0,.32-2.42,16.89,16.89,0,0,1,.31-2.42,2,2,0,0,0,.13-.89,48.08,48.08,0,0,1-6.36,10.12q-3.57,4.28-7.9,4.27A7.74,7.74,0,0,1,135,119a9.54,9.54,0,0,1-2.48-5.66,43.24,43.24,0,0,1,.32-11.59,55.8,55.8,0,0,1,3.37-12.41,51.35,51.35,0,0,1,6.05-11.07,25,25,0,0,1,8.34-7.58,5.7,5.7,0,0,1,3.12-.83,11.56,11.56,0,0,1,3.24.64,22.73,22.73,0,0,1,3.31,1.46c1.1.6,2.25,1.19,3.44,1.79a1.59,1.59,0,0,0,.38-.77c.09-.34.17-.63.26-.89.51-1.1,1.14-1.65,1.91-1.65a7,7,0,0,1,2.1.38,15.83,15.83,0,0,1,2.35,1,19.67,19.67,0,0,1,2.1,1.21c.64.43,1.17.81,1.59,1.15a1.25,1.25,0,0,1,.38,1.84,14.23,14.23,0,0,0-1,2.1q-1.53,4.22-2.93,8.92c-.94,3.14-1.78,6.28-2.55,9.42s-1.44,6.17-2,9.1-1.11,5.54-1.53,7.83c-.17.93-.05,1.44.38,1.52a1.6,1.6,0,0,0,1.4-.63,38.08,38.08,0,0,0,5.41-6.94,81.45,81.45,0,0,0,4.52-8.34q2-4.32,3.63-8.53T183,82.86a2,2,0,0,1,1-1,1.65,1.65,0,0,1,1.27,0,1.79,1.79,0,0,1,1,2.3q-.89,2.16-2.23,5.72t-3.24,7.7q-1.92,4.14-4.14,8.34a61.09,61.09,0,0,1-4.71,7.58A29.55,29.55,0,0,1,166.8,119a8.5,8.5,0,0,1-5.34,2.16,6,6,0,0,1-3-.76,7.43,7.43,0,0,1-2.29-2,8.47,8.47,0,0,1-1.4-2.8A8.21,8.21,0,0,1,154.46,112.52Zm-9.81,2c1,0,2.08-.7,3.19-2.1a36,36,0,0,0,3.37-5.35,64.26,64.26,0,0,0,3.25-7.25c1-2.68,2-5.26,2.86-7.77s1.66-4.77,2.29-6.81,1.13-3.56,1.47-4.58c.17-.6.36-1.17.57-1.72a16.27,16.27,0,0,1,.7-1.59,3.37,3.37,0,0,0-3.06-1.66q-3.3,0-6.17,3.57a36,36,0,0,0-5,8.72,68.42,68.42,0,0,0-3.5,10.82,59.78,59.78,0,0,0-1.59,9.74c0,.34,0,.85-.06,1.52a9.29,9.29,0,0,0,.06,2,5.23,5.23,0,0,0,.51,1.72A1.22,1.22,0,0,0,144.65,114.56Z"/><path d="M210.59,71.15A8.45,8.45,0,0,1,214,75a5.62,5.62,0,0,1,.19,4.58q-1.53,3.57-3.57,7.77T206.14,96a5.52,5.52,0,0,0,3.69.51,11.42,11.42,0,0,0,6-3.88,53.77,53.77,0,0,0,6.62-10,1.5,1.5,0,0,1,1.09-.89,1.85,1.85,0,0,1,2.1,1.14,1.68,1.68,0,0,1-.13,1.4,52.58,52.58,0,0,1-7.7,11.27c-2.42,2.5-4.86,4-7.32,4.39a8.16,8.16,0,0,1-6-.89q-2.92,5.34-6.11,10.31a89.45,89.45,0,0,1-6.23,8.66,12.43,12.43,0,0,1-2.23,2.16,4.49,4.49,0,0,1-2.74,1,11.89,11.89,0,0,1-3.31-.57,18.73,18.73,0,0,1-3.63-1.53,10.41,10.41,0,0,1-2.86-2.29,4.36,4.36,0,0,1-1.15-2.87c0-3.31.11-6.76.32-10.37s.53-7.24,1-10.89.95-7.21,1.59-10.69,1.38-6.75,2.23-9.8c.42-1.27,1.14-1.91,2.16-1.91a14.16,14.16,0,0,1,4.39.83,14.72,14.72,0,0,1,3.76,1.72,1.38,1.38,0,0,1,.57,1.84c-.3.81-.53,1.51-.7,2.1q-1,3.82-2,8.72c-.68,3.27-1.31,6.6-1.91,10s-1.1,6.67-1.52,9.81-.68,5.85-.77,8.14c-.08.6,0,1,.19,1.09s.53-.11,1-.7q1.65-2.3,3.5-5.48t3.69-6.55Q195.45,98.4,197,95c1.06-2.25,2.05-4.27,3-6a31.11,31.11,0,0,1,1.46-7.83,34.42,34.42,0,0,1,4.78-9.35,2.31,2.31,0,0,1,2-1.34A5.28,5.28,0,0,1,210.59,71.15Z"/><path d="M231.34,121.18A17.59,17.59,0,0,1,222,119a14,14,0,0,1-5.41-5.79,20.69,20.69,0,0,1-2-8.21,34.05,34.05,0,0,1,.83-9.42,52,52,0,0,1,3.12-9.42,37.47,37.47,0,0,1,4.83-8.21,27.89,27.89,0,0,1,6.05-5.8,11.68,11.68,0,0,1,6.68-2.22A10.18,10.18,0,0,1,240.19,71a18.39,18.39,0,0,1,4.39,2.86,18.81,18.81,0,0,1,3.44,4,7.76,7.76,0,0,1,1.4,4.2,15.8,15.8,0,0,1-2.29,8.28,25.16,25.16,0,0,1-5.86,6.68,28.49,28.49,0,0,1-7.7,4.45,21.66,21.66,0,0,1-7.83,1.59,17.65,17.65,0,0,0,1.47,8.66q1.71,3.57,6.17,3.57,3.83,0,7.45-3.44a42,42,0,0,0,6.74-8.47,87.1,87.1,0,0,0,5.61-10.63q2.48-5.59,4.13-9.93a1.37,1.37,0,0,1,1-1,1.83,1.83,0,0,1,1.27.06,2.26,2.26,0,0,1,1,.89,1.42,1.42,0,0,1,0,1.41q-1.78,4.71-4.52,11.07a86,86,0,0,1-6.43,12.16,44.93,44.93,0,0,1-8.28,9.8A14.8,14.8,0,0,1,231.34,121.18Zm5-43.66a16.09,16.09,0,0,0-3.63,3.88,35.22,35.22,0,0,0-3.12,5.54,42.91,42.91,0,0,0-2.35,6.49,43.67,43.67,0,0,0-1.34,6.62A9.21,9.21,0,0,0,231,98.27a19.74,19.74,0,0,0,4.71-4.65,24.46,24.46,0,0,0,3.37-6.56,22.83,22.83,0,0,0,1.27-7.51c0-1.35-.44-2.23-1.33-2.61A2.54,2.54,0,0,0,236.31,77.52Z"/><path d="M250.06,108.7c.33-4.07.91-8.63,1.71-13.68s1.72-10.14,2.74-15.28,2.14-10.14,3.38-15,2.45-9.23,3.69-13a73,73,0,0,1,3.5-9.16q1.65-3.43,2.93-3.44a10.41,10.41,0,0,1,2.73.57c1.23.39,2.46.83,3.69,1.34a20.93,20.93,0,0,1,3.25,1.66c.93.59,1.4,1.14,1.4,1.65a.9.9,0,0,1-.25.64c-.35.42-.64.78-.9,1.08a9.53,9.53,0,0,0-.76,1.08,71.66,71.66,0,0,0-5,12.48q-2.61,8.15-5,17.63T263,96q-1.85,9.34-2.74,16.1c-.17,1.45-.09,2.27.25,2.48s1-.14,1.91-1.08a39,39,0,0,0,5.22-6.94q2.42-4,4.46-8.21c1.35-2.8,2.59-5.55,3.69-8.27s2-5.14,2.8-7.26a2,2,0,0,1,1-1,1.65,1.65,0,0,1,1.27,0,2.1,2.1,0,0,1,1,.89,1.37,1.37,0,0,1,0,1.41c-.59,1.44-1.36,3.35-2.29,5.72s-2,5-3.31,7.7-2.67,5.54-4.2,8.34a61.4,61.4,0,0,1-4.84,7.58A31.85,31.85,0,0,1,262,119a8.65,8.65,0,0,1-5.47,2.16,5.88,5.88,0,0,1-4.08-1.27,6.92,6.92,0,0,1-2-3.12,13.54,13.54,0,0,1-.57-4C249.93,111.34,250,110,250.06,108.7Z"/><path d="M270.8,112.52a16.6,16.6,0,0,0,.32-2.42,17,17,0,0,1,.32-2.42,173.71,173.71,0,0,1,3.95-18.52A122.58,122.58,0,0,1,281.24,72c.51-1.1,1.15-1.65,1.91-1.65a7,7,0,0,1,2.1.38,15.94,15.94,0,0,1,2.36,1,20.71,20.71,0,0,1,2.1,1.21c.63.43,1.16.81,1.59,1.15a1.26,1.26,0,0,1,.38,1.84,8.4,8.4,0,0,0-.89,2.1c-1.1,2.81-2.15,5.78-3.12,8.92s-1.89,6.28-2.74,9.42-1.59,6.17-2.22,9.1-1.17,5.54-1.6,7.83c-.17.93,0,1.44.39,1.52a1.6,1.6,0,0,0,1.4-.63,40.61,40.61,0,0,0,5.47-6.94A82.4,82.4,0,0,0,293,98.9q2.1-4.32,3.82-8.53t3-7.51a2,2,0,0,1,1-1,1.64,1.64,0,0,1,1.27,0,1.83,1.83,0,0,1,.95.89,1.8,1.8,0,0,1,.07,1.41q-.9,2.16-2.29,5.72t-3.31,7.7q-1.92,4.14-4.2,8.34a62.59,62.59,0,0,1-4.84,7.58,30.61,30.61,0,0,1-5.28,5.54,8.78,8.78,0,0,1-5.42,2.16,6,6,0,0,1-3-.76,7.54,7.54,0,0,1-2.29-2,8.87,8.87,0,0,1-1.4-2.8A8.42,8.42,0,0,1,270.8,112.52Zm20.5-65c1.19-2.37,2.2-3.56,3.05-3.56a14.77,14.77,0,0,1,3.38,1.14,22,22,0,0,1,4.13,2.3q2.68,1.77.51,5.21-.89,1.41-2.48,3.82t-3.37,4.71a43.11,43.11,0,0,1-3.5,4c-1.15,1.15-2.1,1.72-2.87,1.72A2.69,2.69,0,0,1,287,64.34a15.56,15.56,0,0,1,.32-6,43.37,43.37,0,0,1,2-6.56A44.22,44.22,0,0,1,291.3,47.47Z"/><path d="M291.93,115.07q.39-5,1.4-10.63t2.42-11.33q1.41-5.67,3.12-11.08a98.18,98.18,0,0,1,3.76-10c.42-1.1,1-1.65,1.78-1.65a7,7,0,0,1,2.1.38,19.21,19.21,0,0,1,2.42,1,17.31,17.31,0,0,1,2.16,1.21c.64.43,1.17.81,1.59,1.15a1.26,1.26,0,0,1,.39,1.84,13.39,13.39,0,0,0-1,2.1q-1.79,4.59-3.38,9.81t-2.86,10.44q1.65-3.69,3.75-7.64T314,83a80.11,80.11,0,0,1,4.64-6.75,31.37,31.37,0,0,1,4.65-5,3.24,3.24,0,0,1,2.42-.89,8.62,8.62,0,0,1,2,.38,17.44,17.44,0,0,1,2.86,1.08,15.36,15.36,0,0,1,2.55,1.53,2.25,2.25,0,0,1,1.08,1.72,3.24,3.24,0,0,1-.38,1.4c-.26.51-.49,1-.7,1.52s-.45,1.07-.7,1.66q-1.53,4.08-2.87,8.59t-2.48,9q-1.15,4.45-2.1,8.59t-1.47,7.45c-.17.93-.08,1.48.26,1.65s.85-.08,1.53-.76a40.61,40.61,0,0,0,5.47-6.94,82.4,82.4,0,0,0,4.65-8.34q2.1-4.32,3.82-8.53t3-7.51a2,2,0,0,1,1-1,1.64,1.64,0,0,1,1.27,0,1.83,1.83,0,0,1,.95.89,1.8,1.8,0,0,1,.07,1.41q-.9,2.16-2.29,5.72t-3.31,7.7q-1.92,4.14-4.21,8.34a61.37,61.37,0,0,1-4.83,7.58A30.31,30.31,0,0,1,325.6,119a8.74,8.74,0,0,1-5.41,2.16,7.54,7.54,0,0,1-5.47-2.1,5.54,5.54,0,0,1-1.91-4.65c.34-2.71.78-5.64,1.34-8.78s1.21-6.32,2-9.55,1.59-6.38,2.48-9.48,1.81-6,2.74-8.72A41.66,41.66,0,0,0,317,83.56q-2.24,3.38-4.39,7.32c-1.45,2.63-2.8,5.35-4.08,8.15s-2.42,5.49-3.43,8.08-1.85,5-2.49,7.2a26.14,26.14,0,0,0-1.08,5.47c0,.68-.15,1.08-.44,1.21a2.73,2.73,0,0,1-1.09.19,6.8,6.8,0,0,1-2.54-.57,11.93,11.93,0,0,1-2.61-1.47,9.82,9.82,0,0,1-2-2A3.49,3.49,0,0,1,291.93,115.07Z"/><path d="M358.26,108.7a5.84,5.84,0,0,1,.06-1,8.32,8.32,0,0,0,.06-1.08,60.18,60.18,0,0,1-3,5.53,28.32,28.32,0,0,1-3.44,4.59A17.31,17.31,0,0,1,348,120a8.65,8.65,0,0,1-4.39,1.21q-4.85,0-6.94-3.12a14.2,14.2,0,0,1-2.36-7.19,51.7,51.7,0,0,1,.77-11.14A60.85,60.85,0,0,1,338.27,88a44.29,44.29,0,0,1,5.54-10.31,23.44,23.44,0,0,1,7.83-7.07,5.79,5.79,0,0,1,3.18-.83,11,11,0,0,1,3.24.64,22.76,22.76,0,0,1,3.12,1.4c1,.55,2,1,2.93,1.46q1.53-6.87,3.12-13t3.25-10.89a67.52,67.52,0,0,1,3-7.51c.93-1.86,1.78-2.8,2.55-2.8a11.19,11.19,0,0,1,2.8.57c1.27.39,2.52.83,3.75,1.34a20.93,20.93,0,0,1,3.25,1.66c.93.59,1.4,1.14,1.4,1.65a.6.6,0,0,1-.38.64,5.91,5.91,0,0,1-.83,1.08,3.2,3.2,0,0,0-.7,1.08,71.66,71.66,0,0,0-5,12.48q-2.61,8.15-5,17.63T371.18,96q-1.86,9.34-2.74,16.1-.51,4.2,2,1.4a39.92,39.92,0,0,0,5.22-6.94q2.42-4,4.51-8.21T384,90.12c1.1-2.72,2-5.14,2.8-7.26a2,2,0,0,1,1-1,1.65,1.65,0,0,1,1.27,0,1.85,1.85,0,0,1,1,.89,1.8,1.8,0,0,1,.06,1.41c-.59,1.44-1.36,3.35-2.29,5.72s-2,5-3.31,7.7-2.67,5.54-4.2,8.34a61.4,61.4,0,0,1-4.84,7.58,30.61,30.61,0,0,1-5.28,5.54,8.78,8.78,0,0,1-5.41,2.16,5.88,5.88,0,0,1-4.08-1.27,6.92,6.92,0,0,1-2-3.12,13.54,13.54,0,0,1-.57-4C358.13,111.34,358.17,110,358.26,108.7Zm2-33c-2.12,0-4.05,1.11-5.79,3.31A32,32,0,0,0,350,87.25a77.9,77.9,0,0,0-3.18,10.31,71.34,71.34,0,0,0-1.66,9.62,12.26,12.26,0,0,0,.45,5.15c.46,1.23,1.16,1.85,2.1,1.85q2.16,0,4.71-4.08a54.74,54.74,0,0,0,4.2-7.95q2-4.65,3.69-9.36c.43-2.46.87-4.94,1.34-7.45s.95-5,1.46-7.57A2.94,2.94,0,0,0,360.29,75.73Z"/><path d="M395.93,70.64a7.24,7.24,0,0,1,4.65-.51A11.09,11.09,0,0,1,405,72a17.18,17.18,0,0,1,10.25,3.44A11.81,11.81,0,0,1,418.34,79a8.51,8.51,0,0,1,1.14,4.2,43.31,43.31,0,0,1-1,8.91,50.53,50.53,0,0,1-2.74,8.92,50.71,50.71,0,0,0,7.58-8.34,47.14,47.14,0,0,0,5.54-10,1.73,1.73,0,0,1,1-1,1.88,1.88,0,0,1,1.28.06,1.81,1.81,0,0,1,1,2.3,49.38,49.38,0,0,1-19.86,23.67,34.93,34.93,0,0,1-8.41,9.61,16.8,16.8,0,0,1-10.56,3.76,12.41,12.41,0,0,1-6.17-1.53,15.06,15.06,0,0,1-4.59-3.88,19,19,0,0,1-2.86-5.09,15.15,15.15,0,0,1-1-5.29A44,44,0,0,1,380,95.46a54.7,54.7,0,0,1,3.37-10,38.32,38.32,0,0,1,5.35-8.72A23.94,23.94,0,0,1,395.93,70.64Zm-5.09,41.63a4.25,4.25,0,0,1,1.28-.26,31.06,31.06,0,0,0,3.69-.63c1-.26,2.24-.6,3.69-1a37.47,37.47,0,0,0,3.18-5.86,56,56,0,0,0,2.61-7.13A67.82,67.82,0,0,0,407,90a40.46,40.46,0,0,0,.64-6.75,12.44,12.44,0,0,0-.77-4.9,3.44,3.44,0,0,0-2.1-2.1,4.33,4.33,0,0,0-3,.38,10.14,10.14,0,0,0-3.31,2.68,30.39,30.39,0,0,0-4.71,7.57,45.3,45.3,0,0,0-3,9.29,43.94,43.94,0,0,0-1,9.17A17.32,17.32,0,0,0,390.84,112.27Z"/><path d="M54.29,180.8c19.84-8.52,39.33-13.82,60.78-19.32q35.55-9.1,71.89-14.58a796.69,796.69,0,0,1,92.61-8.65q28.67-1,58.54.16,33.64,1.31,67.11,5.33a81,81,0,0,0,21.21,0c.77-.12,4.4-.4,4.4-1.5s-4.14-1.46-4.4-1.49c-80.41-9.56-162.07-9.83-242.42.59-46.28,6-92.4,15.49-136.7,30.3-7.38,2.46-14.8,5-22,8-1.79.77,1.49,1.62,1.51,1.63,2.59.88,6.32.86,9,1,5.67.23,13,.84,18.45-1.48Z"/></g></g></svg>